<mxfile host="app.diagrams.net" modified="2020-07-21T23:15:54.339Z" agent="5.0 (Windows NT 10.0; Win64; x64) AppleWebKit/537.36 (KHTML, like Gecko) Chrome/83.0.4103.97 Safari/537.36 OPR/69.0.3686.36" etag="M1nfGcu_e08UIGQFlLAj" version="13.4.9" type="github">
  <diagram id="lYsP2e6MVCsPvA2iZBRr" name="Page-1">
    <mxGraphModel dx="920" dy="633" grid="1" gridSize="10" guides="1" tooltips="1" connect="1" arrows="1" fold="1" page="1" pageScale="1" pageWidth="850" pageHeight="1100" math="0" shadow="0">
      <root>
        <mxCell id="0" />
        <mxCell id="1" parent="0" />
        <mxCell id="KIBMzoWUapfhkXzz_Zhx-6" style="edgeStyle=orthogonalEdgeStyle;rounded=0;orthogonalLoop=1;jettySize=auto;html=1;exitX=0.5;exitY=1;exitDx=0;exitDy=0;entryX=0.5;entryY=0;entryDx=0;entryDy=0;" edge="1" parent="1" source="KIBMzoWUapfhkXzz_Zhx-1" target="KIBMzoWUapfhkXzz_Zhx-2">
          <mxGeometry relative="1" as="geometry" />
        </mxCell>
        <mxCell id="KIBMzoWUapfhkXzz_Zhx-1" value="Patriarcado" style="rounded=0;whiteSpace=wrap;html=1;" vertex="1" parent="1">
          <mxGeometry x="110" y="130" width="120" height="60" as="geometry" />
        </mxCell>
        <mxCell id="KIBMzoWUapfhkXzz_Zhx-2" value="Machismo&lt;br&gt;Competencia&lt;br&gt;estructura vertical" style="rounded=0;whiteSpace=wrap;html=1;" vertex="1" parent="1">
          <mxGeometry x="110" y="220" width="120" height="60" as="geometry" />
        </mxCell>
        <mxCell id="KIBMzoWUapfhkXzz_Zhx-7" style="edgeStyle=orthogonalEdgeStyle;rounded=0;orthogonalLoop=1;jettySize=auto;html=1;exitX=0.5;exitY=1;exitDx=0;exitDy=0;entryX=0.5;entryY=0;entryDx=0;entryDy=0;" edge="1" parent="1" source="KIBMzoWUapfhkXzz_Zhx-3" target="KIBMzoWUapfhkXzz_Zhx-4">
          <mxGeometry relative="1" as="geometry" />
        </mxCell>
        <mxCell id="KIBMzoWUapfhkXzz_Zhx-3" value="Matriarcado" style="rounded=0;whiteSpace=wrap;html=1;" vertex="1" parent="1">
          <mxGeometry x="280" y="130" width="120" height="60" as="geometry" />
        </mxCell>
        <mxCell id="KIBMzoWUapfhkXzz_Zhx-4" value="ColaboraciÃ³n&lt;br&gt;Estructura horizontal" style="rounded=0;whiteSpace=wrap;html=1;" vertex="1" parent="1">
          <mxGeometry x="280" y="220" width="120" height="60" as="geometry" />
        </mxCell>
        <mxCell id="KIBMzoWUapfhkXzz_Zhx-8" value="Yin yang&lt;br&gt;armonia en el Taoismo" style="rounded=0;whiteSpace=wrap;html=1;" vertex="1" parent="1">
          <mxGeometry x="190" y="50" width="120" height="60" as="geometry" />
        </mxCell>
      </root>
    </mxGraphModel>
  </diagram>
</mxfile>
